<?xml version="1.0" standalone="no"?>
<!DOCTYPE svg PUBLIC "-//W3C//DTD SVG 1.1//EN" "http://www.w3.org/Graphics/SVG/1.1/DTD/svg11.dtd" >
<svg xmlns="http://www.w3.org/2000/svg">
<metadata>Generated by IcoMoon</metadata>
<defs>
<font id="icomoon" horiz-adv-x="1024">
<font-face units-per-em="1024" ascent="960" descent="-64" />
<missing-glyph horiz-adv-x="1024" />
<glyph unicode="&#x20;" horiz-adv-x="512" d="" />
<glyph unicode="&#xe900;" glyph-name="network" horiz-adv-x="819" d="M286.72 605.013h-218.453c-38.229 0-68.267 30.037-68.267 68.267v136.533c0 38.229 30.037 68.267 68.267 68.267h218.453c38.229 0 68.267-30.037 68.267-68.267v-136.533c0-38.229-30.037-68.267-68.267-68.267zM68.267 850.773c-23.211 0-40.96-17.749-40.96-40.96v-136.533c0-23.211 17.749-40.96 40.96-40.96h218.453c23.211 0 40.96 17.749 40.96 40.96v136.533c0 23.211-17.749 40.96-40.96 40.96h-218.453zM13.653 796.16c-8.192 0-13.653 5.461-13.653 13.653v95.573c-1.365 28.672 21.845 53.248 51.883 54.613 0 0 1.365 0 2.731 0h81.92c4.096 0 6.827-1.365 9.557-4.096l36.864-36.864h49.152c28.672 1.365 53.248-21.845 54.613-51.883 0-1.365 0-2.731 0-2.731 0-8.192-5.461-13.653-13.653-13.653s-13.653 5.461-13.653 13.653c1.365 13.653-9.557 25.941-24.576 27.307-1.365 0-2.731 0-2.731 0h-54.613c-4.096 0-6.827 1.365-9.557 4.096l-36.864 36.864h-76.459c-13.653 1.365-25.941-9.557-27.307-24.576 0 0 0-1.365 0-2.731v-95.573c0-8.192-5.461-13.653-13.653-13.653zM286.72 140.8h-218.453c-38.229 0-68.267 30.037-68.267 68.267v136.533c0 38.229 30.037 68.267 68.267 68.267h218.453c38.229 0 68.267-30.037 68.267-68.267v-136.533c0-38.229-30.037-68.267-68.267-68.267zM68.267 386.56c-23.211 0-40.96-17.749-40.96-40.96v-136.533c0-23.211 17.749-40.96 40.96-40.96v0h218.453c23.211 0 40.96 17.749 40.96 40.96v0 136.533c0 23.211-17.749 40.96-40.96 40.96h-218.453zM13.653 331.947c-8.192 0-13.653 5.461-13.653 13.653v95.573c-1.365 28.672 21.845 53.248 51.883 54.613 1.365 0 2.731 0 2.731 0h81.92c4.096 0 6.827-1.365 9.557-4.096l36.864-36.864h49.152c28.672 1.365 53.248-21.845 54.613-51.883 0-1.365 0-2.731 0-2.731 0-8.192-5.461-13.653-13.653-13.653s-13.653 5.461-13.653 13.653c1.365 13.653-9.557 25.941-24.576 27.307-1.365 0-2.731 0-2.731 0h-54.613c-4.096 0-6.827 1.365-9.557 4.096l-36.864 36.864h-76.459c-13.653 1.365-25.941-9.557-27.307-24.576 0-1.365 0-2.731 0-2.731v-95.573c0-8.192-5.461-13.653-13.653-13.653zM764.587 345.6h-245.76c-30.037 0-54.613 24.576-54.613 54.613v232.107c0 4.096 1.365 6.827 4.096 9.557l109.227 109.227c2.731 2.731 5.461 4.096 9.557 4.096h177.493c30.037 0 54.613-24.576 54.613-54.613v-300.373c0-30.037-24.576-54.613-54.613-54.613zM491.52 626.859v-226.645c0-15.019 12.288-27.307 27.307-27.307h245.76c15.019 0 27.307 12.288 27.307 27.307v300.373c0 15.019-12.288 27.307-27.307 27.307h-172.032l-101.035-101.035zM559.787 618.667h-81.92c-8.192 0-13.653 5.461-13.653 13.653s5.461 13.653 13.653 13.653h81.92c6.827 0 13.653 4.096 13.653 10.923 0 1.365 0 1.365 0 2.731v81.92c0 8.192 5.461 13.653 13.653 13.653s13.653-5.461 13.653-13.653v-81.92c0-21.845-16.384-40.96-38.229-40.96-1.365 0-1.365 0-2.731 0zM218.453 564.053c0-7.541-6.113-13.653-13.653-13.653s-13.653 6.113-13.653 13.653c0 7.541 6.113 13.653 13.653 13.653s13.653-6.113 13.653-13.653zM218.453 509.44c0-7.541-6.113-13.653-13.653-13.653s-13.653 6.113-13.653 13.653c0 7.541 6.113 13.653 13.653 13.653s13.653-6.113 13.653-13.653zM273.067 536.747c0-7.541-6.113-13.653-13.653-13.653s-13.653 6.113-13.653 13.653c0 7.541 6.113 13.653 13.653 13.653s13.653-6.113 13.653-13.653zM327.68 536.747c0-7.541-6.113-13.653-13.653-13.653s-13.653 6.113-13.653 13.653c0 7.541 6.113 13.653 13.653 13.653s13.653-6.113 13.653-13.653zM382.293 536.747c0-7.541-6.113-13.653-13.653-13.653s-13.653 6.113-13.653 13.653c0 7.541 6.113 13.653 13.653 13.653s13.653-6.113 13.653-13.653zM436.907 536.747c0-7.541-6.113-13.653-13.653-13.653s-13.653 6.113-13.653 13.653c0 7.541 6.113 13.653 13.653 13.653s13.653-6.113 13.653-13.653zM655.36 509.44c-54.613 0-95.573 23.211-95.573 54.613s40.96 54.613 95.573 54.613 95.573-23.211 95.573-54.613-40.96-54.613-95.573-54.613zM655.36 591.36c-42.325 0-68.267-16.384-68.267-27.307s25.941-27.307 68.267-27.307 68.267 16.384 68.267 27.307-25.941 27.307-68.267 27.307zM655.36 454.827c-54.613 0-95.573 23.211-95.573 54.613 0 8.192 5.461 13.653 13.653 13.653s13.653-5.461 13.653-13.653c0-10.923 25.941-27.307 68.267-27.307s68.267 16.384 68.267 27.307c0 8.192 5.461 13.653 13.653 13.653s13.653-5.461 13.653-13.653c0-31.403-40.96-54.613-95.573-54.613zM655.36 400.213c-54.613 0-95.573 23.211-95.573 54.613v109.227c0 8.192 5.461 13.653 13.653 13.653s13.653-5.461 13.653-13.653v-109.227c0-10.923 25.941-27.307 68.267-27.307s68.267 16.384 68.267 27.307v109.227c0 8.192 5.461 13.653 13.653 13.653s13.653-5.461 13.653-13.653v-109.227c0-31.403-40.96-54.613-95.573-54.613z" />
<glyph unicode="&#xe901;" glyph-name="aceleracao-wan" horiz-adv-x="1329" d="M675.638 208.071v278.221c0 0.809-0.656 1.464-1.464 1.464v0h-20.501c-0.809 0-1.464-0.656-1.464-1.464v0-278.221h-75.559c-0.809 0-1.464-0.656-1.464-1.464v0-20.501c0-0.809 0.656-1.464 1.464-1.464v0h175.719c0.809 0 1.464 0.656 1.464 1.464v0 20.501c0 0.809-0.656 1.464-1.464 1.464v0zM520.859 569.612h286.128c1.941 0 3.514-1.573 3.514-3.514v-16.4c0-1.941-1.573-3.514-3.514-3.514h-286.128c-1.941 0-3.514 1.573-3.514 3.514v16.4c0 1.941 1.573 3.514 3.514 3.514zM901.436 952.678h-475.319c-9.786 0-17.718-7.933-17.718-17.718v0-283.785c0-9.786 7.933-17.718 17.718-17.718h217.159v-50.080h41.147v50.080h217.012c9.786 0 17.718 7.933 17.718 17.718v0 283.785c0 9.786-7.933 17.718-17.718 17.718v0zM894.847 657.764h-462.14v270.607h462.286zM119.635-33.249h285.982c1.941 0 3.514-1.573 3.514-3.514v0-16.254c0-2.022-1.639-3.661-3.661-3.661v0h-285.836c-1.941 0-3.514 1.573-3.514 3.514v0 16.254c0 0.001 0 0.002 0 0.003 0 1.97 1.557 3.577 3.507 3.658h0.007zM500.212 349.817h-475.319c-9.786 0-17.718-7.933-17.718-17.718v0 0-283.932c0.083-9.722 7.984-17.572 17.718-17.572 0 0 0 0 0.001 0h217.159v-50.080h41.733v50.080h216.427c0.044 0 0.095-0.001 0.146-0.001 9.786 0 17.718 7.933 17.718 17.718 0 0 0 0 0 0.001v0 283.785c0 0 0 0 0 0.001 0 9.734-7.849 17.635-17.564 17.718h-0.008zM493.623 54.903h-462.14v270.607h462.14zM923.548-33.249h285.836c2.022 0 3.661-1.639 3.661-3.661v-16.108c0-2.022-1.639-3.661-3.661-3.661h-285.836c-2.022 0-3.661 1.639-3.661 3.661v16.108c0 2.022 1.639 3.661 3.661 3.661zM1304.125 349.817h-475.319c-0.044 0-0.095 0.001-0.146 0.001-9.786 0-17.718-7.933-17.718-17.718 0 0 0 0 0-0.001v0-283.932c0-9.786 7.933-17.718 17.718-17.718v0h216.573v-50.080h41.147v50.226h217.745c9.786 0 17.718 7.933 17.718 17.718v0 283.785c0 0 0 0 0 0.001 0 9.734-7.849 17.635-17.564 17.718h-0.008zM1297.535 54.903h-462.14v270.607h462.14zM664.509 912.995c-66.315 0-120.074-53.759-120.074-120.074s53.759-120.074 120.074-120.074c66.315 0 120.074 53.759 120.074 120.074v0c0 66.315-53.759 120.074-120.074 120.074v0zM755.004 854.422c10.857-15.76 17.717-35.028 18.734-55.832l0.010-0.252h-43.93c-0.618 16.711-3.841 32.48-9.273 47.178l0.34-1.052c13.208 2.963 24.37 6.336 35.191 10.406l-1.805-0.595zM659.238 798.339h-50.080c0.621 15.936 3.79 30.947 9.11 44.897l-0.324-0.968c12.014-2.224 26.008-3.649 40.279-3.949l0.282-0.005zM659.238 787.649v-41.001c-14.423-0.267-28.324-1.641-41.869-4.042l1.601 0.235c-5.198 13.283-8.476 28.648-9.071 44.7l-0.008 0.255zM669.927 787.649h48.908c-1.064-16.451-4.786-31.753-10.744-45.882l0.347 0.927c-11.795 2.142-25.541 3.515-39.553 3.803l-0.277 0.004zM669.927 798.339v39.976c14.379 0.276 28.228 1.65 41.725 4.043l-1.602-0.235c4.996-12.982 8.165-27.994 8.778-43.662l0.008-0.267zM748.268 863.355c-8.485-3.126-19.028-6.154-29.831-8.487l-1.652-0.299c-7.974 17.761-18.513 32.941-31.343 45.84l0.007-0.007c25.384-5.067 47.063-18.339 62.684-36.882l0.135-0.165zM705.803 852.519c-10.582-1.85-22.963-3.063-35.571-3.362l-0.305-0.006v50.666c14.934-12.95 27.026-28.742 35.508-46.584l0.368-0.86zM659.238 900.402v-51.251c-13.047 0.281-25.584 1.495-37.823 3.58l1.508-0.212c8.941 18.841 21.184 34.737 36.127 47.579l0.188 0.158zM643.276 900.402c-12.744-12.819-23.23-27.898-30.801-44.582l-0.389-0.958c-12.358 2.65-22.8 5.676-32.939 9.337l1.749-0.552c15.687 18.517 37.197 31.67 61.679 36.636l0.701 0.119zM607.986 844.758c-5.092-13.646-8.314-29.415-8.924-45.851l-0.008-0.275h-43.93c1.026 21.056 7.886 40.324 18.982 56.451l-0.239-0.367c9.157-3.542 20.466-6.966 32.069-9.619l1.757-0.338zM574.6 731.127c-11.108 15.886-18.132 35.363-19.173 56.415l-0.010 0.255h43.93c0.261-16.905 3.243-33.028 8.526-48.069l-0.326 1.064c-13.297-2.888-24.567-6.215-35.493-10.251l1.814 0.586zM581.482 722.194c8.254 3.004 18.556 5.932 29.103 8.197l1.648 0.296c7.903-17.342 18.234-32.171 30.763-44.82l-0.012 0.012c-24.782 5.116-45.955 18.031-61.378 36.022l-0.123 0.147zM623.215 732.884c10.631 1.857 23.064 3.070 35.725 3.363l0.297 0.005v-50.373c-14.895 12.834-26.978 28.476-35.506 46.155l-0.369 0.85zM669.927 686.172v49.64c12.781-0.267 25.069-1.429 37.075-3.427l-1.492 0.205c-8.847-18.398-20.828-33.938-35.405-46.561l-0.178-0.151zM685.595 686.172c12.259 12.537 22.392 27.217 29.775 43.414l0.39 0.955c12.349-2.593 22.797-5.571 32.944-9.184l-1.754 0.545c-15.67-18.297-37.064-31.287-61.387-36.197l-0.7-0.118zM719.714 740.791c5.214 13.866 8.493 29.89 9.072 46.6l0.007 0.258h43.93c-1.050-21.306-8.074-40.784-19.416-57.022l0.233 0.353c-9.158 3.499-20.473 6.876-32.079 9.481l-1.747 0.33z" />
<glyph unicode="&#xe902;" glyph-name="arrow-repeat" horiz-adv-x="1384" d="M371.151 669.999l93.354-94.36h-464.505v-639.638h1383.954v264.964h-113.233v-151.732h-1157.489v413.173h351.273l-93.354-94.36 80.395-79.64 228.478 230.617-228.478 230.617-80.395-79.64zM0 960v-264.838h113.233v151.606h1157.489v-413.047h-351.273l93.354 94.235-80.395 79.766-228.478-230.617 228.478-230.743 80.395 79.766-93.354 94.36h464.505v639.512h-1383.954z" />
<glyph unicode="&#xe903;" glyph-name="chat" horiz-adv-x="1508" d="M1293.891 960h-641.389c-0.056 0-0.123 0-0.19 0-99.275 0-182.819-67.346-207.441-158.844l-0.344-1.503h411.188c144.6-0.181 261.773-117.353 261.953-261.936v-207.992c0-0.073 0-0.159 0-0.245 0-33.607-6.41-65.717-18.075-95.173l0.611 1.75 141.296-88.905c2.571-1.648 5.709-2.627 9.075-2.627 9.382 0 16.987 7.605 16.987 16.987 0 1.671-0.241 3.286-0.691 4.811l0.030-0.12-38.102 158.76h65.091c0.283-0.001 0.619-0.002 0.955-0.002 117.843 0 213.373 95.53 213.373 213.373 0 0.336-0.001 0.671-0.002 1.006v-0.052 207.975c-0.179 117.532-95.498 212.742-213.055 212.742-0.447 0-0.893-0.001-1.339-0.004h0.069zM855.715 752.025h-641.389c-0.283 0.001-0.619 0.002-0.955 0.002-117.843 0-213.373-95.53-213.373-213.373 0-0.336 0.001-0.671 0.002-1.006v0.052-207.975c-0.001-0.283-0.002-0.619-0.002-0.955 0-117.843 95.53-213.373 213.373-213.373 0.336 0 0.671 0.001 1.006 0.002h65.039l-38.102-158.76c-0.283-1.155-0.445-2.481-0.445-3.845 0-9.294 7.534-16.829 16.829-16.829 0.38 0 0.757 0.013 1.131 0.037l-0.051-0.003c3.563 0.356 6.799 1.491 9.623 3.231l-0.097-0.056 277.829 176.223h311.169c93.928 0.081 173.728 60.481 202.759 144.551l0.453 1.508c6.584 19.836 10.612 42.699 11.109 66.43l0.004 0.249v207.975c-0.090 119.209-96.704 215.823-215.904 215.913h-0.009z" />
<glyph unicode="&#xe904;" glyph-name="cloud" d="M713.117 290.714h-389.12c-56.525 0-102.4 45.875-102.4 102.4s45.875 102.4 102.4 102.4c4.096 0 8.192 0 12.288-0.819 13.926 63.898 71.27 110.592 137.626 110.592 48.333 0 93.389-24.576 118.784-65.536 9.83 3.277 19.661 4.915 30.31 4.915 46.694 0 86.835-31.13 99.123-76.186 45.056-4.096 80.282-42.598 80.282-88.474-0.819-49.152-40.141-89.293-89.293-89.293zM323.997 470.938c-42.598 0-77.824-35.226-77.824-77.824s35.226-77.824 77.824-77.824h389.12c36.045 0 64.717 28.672 64.717 64.717 0 35.226-28.672 64.717-64.717 64.717-0.819 0-0.819 0-1.638 0-5.734 0-11.469 4.096-12.288 10.65-5.734 37.683-38.502 65.536-77.005 65.536-10.65 0-21.299-2.458-31.13-6.554-5.734-2.458-13.107 0-15.565 5.734-20.48 37.683-59.802 61.44-102.4 61.44-58.163 0-108.134-43.418-115.507-101.581-0.819-3.277-2.458-6.554-4.915-9.011-3.277-1.638-6.554-2.458-9.83-1.638-6.554 0.819-13.107 1.638-18.842 1.638z" />
<glyph unicode="&#xe905;" glyph-name="hiperconvergencia" horiz-adv-x="1045" d="M1016.907 79.551h-380.214c-10.269 43.027-43.211 76.382-85.206 87.081l-0.812 0.175v123.848c121.709 5.179 236.438 43.797 236.438 112.589v443.039c0 74.872-133.081 113.715-264.585 113.715s-264.585-38.843-264.585-113.715v-442.138c0-69.355 114.729-107.973 236.438-112.589v-124.749c-42.914-10.947-75.898-44.493-85.861-86.913l-0.157-0.795h-380.214c-15.545 0-28.147-12.602-28.147-28.147s12.602-28.147 28.147-28.147v0h381.79c13.745-50.363 59.084-86.776 112.927-86.776s99.182 36.412 112.736 85.956l0.191 0.82h381.115c15.545 0 28.147 12.602 28.147 28.147s-12.602 28.147-28.147 28.147v0zM314.237 773.439c50.665-27.021 129.478-40.87 208.29-40.87s157.625 13.848 208.29 40.87v-140.737c0-16.663-72.958-57.421-208.29-57.421s-208.29 40.757-208.29 57.421zM314.237 404.146v155.824c50.665-27.021 129.478-40.983 208.29-40.983s157.625 13.848 208.29 40.87v-155.711c0-16.663-73.183-57.195-208.29-57.195s-208.29 40.532-208.29 57.195z" />
<glyph unicode="&#xe906;" glyph-name="facebook" d="M730.255 567.346h-138.085v90.564c0 34.011 22.542 41.94 38.418 41.94 15.841 0 97.446 0 97.446 0v149.519l-134.202 0.524c-148.977 0-182.88-111.516-182.88-182.88v-99.667h-86.157v-154.071h86.157c0-197.727 0-435.967 0-435.967h181.218c0 0 0 240.588 0 435.967h122.281l15.804 154.071z" />
<glyph unicode="&#xe907;" glyph-name="linkedin" d="M818.782-62.718v388.312c0 0-11.5 103.876-112 103.876-100.438 0-118.812-98.75-118.812-98.75v-393.438h-207l3.376 641.438h200.25l-1.626-80.626c0 0 41.752 105.376 199.062 105.376 157.25 0 228.5-90.376 241.75-259.376 0-169.062 0-406.812 0-406.812h-205zM127.094 669.844c-71.126 0-128.876 50.876-128.876 113.75s57.75 113.876 128.876 113.876 128.876-51 128.876-113.876-57.752-113.75-128.876-113.75zM254.844-63.468h-254.5v640.562l254.5 1.626v-642.188z" />
<glyph unicode="&#xe908;" glyph-name="twitter" d="M971.96 733.718c-33.846-15.012-70.218-25.156-108.394-29.716 38.96 23.358 68.89 60.342 82.98 104.416-36.468-21.628-76.86-37.336-119.85-45.798-34.426 36.682-83.476 59.598-137.76 59.598-104.228 0-188.736-84.5-188.736-188.728 0-14.792 1.668-29.196 4.888-43.010-156.854 7.872-295.924 83.008-389.008 197.194-16.246-27.874-25.554-60.292-25.554-94.882 0-65.478 33.318-123.246 83.96-157.092-30.938 0.982-60.040 9.47-85.484 23.608-0.018-0.79-0.018-1.576-0.018-2.376 0-91.442 65.058-167.718 151.396-185.062-15.836-4.312-32.51-6.622-49.722-6.622-12.162 0-23.984 1.186-35.51 3.386 24.018-74.976 93.716-129.546 176.306-131.066-64.592-50.624-145.97-80.792-234.396-80.792-15.234 0-30.256 0.892-45.022 2.64 83.524-53.55 182.73-84.8 289.31-84.8 347.148 0 536.986 287.588 536.986 536.992 0 8.182-0.184 16.32-0.546 24.416 36.878 26.608 68.874 59.848 94.174 97.694z" />
<glyph unicode="&#xe909;" glyph-name="youtube" d="M1013.76 654.208c0 0-10.016 71.064-40.704 102.352-38.944 41.088-82.592 41.28-102.592 43.664-143.296 10.44-358.24 10.44-358.24 10.44h-0.448c0 0-214.944 0-358.24-10.44-20.032-2.384-63.648-2.576-102.624-43.664-30.688-31.296-40.672-102.352-40.672-102.352s-10.24-83.472-10.24-166.904v-78.248c0-83.464 10.24-166.904 10.24-166.904s9.984-71.064 40.672-102.352c38.976-41.088 90.144-39.8 112.928-44.088 81.92-7.928 348.16-10.376 348.16-10.376s215.168 0.32 358.464 10.76c20 2.416 63.648 2.608 102.592 43.696 30.688 31.296 40.704 102.352 40.704 102.352s10.24 83.44 10.24 166.912v78.248c0 83.432-10.24 166.904-10.24 166.904zM406.272 314.24l-0.032 289.752 276.672-145.376-276.64-144.376z" />
<glyph unicode="&#xe90a;" glyph-name="arrow-right" horiz-adv-x="819" d="M481.963 777.045l212.992-212.992h-622.592v-27.307h622.592l-212.992-212.992 19.115-19.115 245.76 245.76-245.76 245.76z" />
<glyph unicode="&#xe90b;" glyph-name="backup" horiz-adv-x="819" d="M434.176 804.042c-120.422 0-221.184-84.378-247.398-196.608h-55.706l65.536-81.92 65.536 81.92h-41.779c25.395 94.208 111.411 163.84 213.811 163.84 122.061 0 221.184-99.123 221.184-221.184s-99.123-221.184-221.184-221.184c-82.739 0-154.829 45.056-193.331 113.050l-26.214-18.022c44.237-76.186 126.157-126.976 219.546-126.976 140.083 0 253.952 113.869 253.952 253.952 0 139.264-113.869 253.133-253.952 253.133zM360.448 517.322h106.496v139.264h-32.768v-106.496h-73.728z" />
<glyph unicode="&#xe90c;" glyph-name="circuit" horiz-adv-x="819" d="M720.896 861.696c-31.949 0-57.344-25.395-57.344-57.344v-229.376c-2.458 0-4.915 0.819-7.373 0.819-15.565 0-29.491-5.734-40.96-16.384l-115.507-116.326c-0.819-0.819-1.638-1.638-2.458-3.277-3.277-3.277-5.734-7.373-5.734-12.288v-229.376c0-9.011 7.373-16.384 16.384-16.384h172.032c9.011 0 16.384 7.373 16.384 16.384v124.518l77.005 77.005c0.819 0.819 1.638 1.638 1.638 2.458 0 0 0.819 0.819 0.819 1.638s0.819 0.819 0.819 1.638 0 0.819 0.819 1.638c0 0 0 0.819 0.819 1.638 0 0.819 0 2.458 0 3.277v392.397c0 31.949-25.395 57.344-57.344 57.344zM745.472 417.69l-77.005-77.005c-0.819-0.819-1.638-1.638-1.638-2.458l-0.819-0.819c0-0.819-0.819-0.819-0.819-1.638s0-0.819-0.819-1.638c0 0 0-0.819-0.819-1.638 0-0.819 0-2.458 0-3.277v-114.688h-139.264v206.438l114.688 114.688c9.011 9.011 25.395 9.011 34.406 0 9.83-9.83 9.83-25.395 0-34.406l-75.366-75.366c-2.458-2.458-4.096-5.734-4.096-9.011-0.819-4.915 0.819-10.65 4.096-14.746 3.277-3.277 7.373-4.915 11.469-4.915s8.192 1.638 11.469 4.915l76.186 75.366c22.118 22.118 22.118 58.982 0 81.101v0 245.76c0 13.926 10.65 24.576 24.576 24.576s24.576-10.65 24.576-24.576l-0.819-386.662zM319.488 443.085l-115.507 115.507c-10.65 10.65-25.395 16.384-40.96 16.384-2.458 0-4.915 0-7.373-0.819v230.195c0 31.949-25.395 57.344-57.344 57.344s-57.344-25.395-57.344-57.344v-393.216c0-0.819 0-2.458 0-3.277s0-0.819 0.819-1.638c0-0.819 0-0.819 0.819-1.638 0-0.819 0.819-0.819 0.819-1.638s0-0.819 0.819-1.638 0.819-1.638 1.638-2.458v0l77.005-77.005v-123.699c0-9.011 7.373-16.384 16.384-16.384h172.032c9.011 0 16.384 7.373 16.384 16.384v229.376c0 4.915-2.458 9.011-5.734 12.288-0.819 0.819-1.638 2.458-2.458 3.277zM294.912 214.528h-139.264v114.688c0 0.819 0 2.458 0 3.277s0 0.819-0.819 1.638c0 0.819 0 0.819-0.819 1.638 0 0.819-0.819 0.819-0.819 1.638 0 0 0 0.819-0.819 0.819-0.819 0.819-0.819 1.638-1.638 2.458l-77.005 77.005v386.662c0 13.926 10.65 24.576 24.576 24.576s24.576-10.65 24.576-24.576v-245.76c-10.65-10.65-16.384-25.395-16.384-40.96s5.734-29.491 16.384-40.96v0l74.547-74.547c3.277-3.277 7.373-4.915 11.469-4.915s8.192 1.638 11.469 4.915c4.096 4.096 5.734 9.011 4.096 14.746-0.819 3.277-1.638 6.554-4.096 9.011l-74.547 75.366c-4.915 4.915-7.373 10.65-7.373 17.203s2.458 13.107 7.373 17.203c9.011 9.011 25.395 9.011 34.406 0l114.688-114.688v-206.438zM393.216 824.013v-134.349c0-9.011 7.373-16.384 16.384-16.384s16.384 7.373 16.384 16.384v134.349c18.842 6.554 32.768 24.576 32.768 45.875 0 27.034-22.118 49.152-49.152 49.152s-49.152-22.118-49.152-49.152c0-21.299 13.926-39.322 32.768-45.875zM409.6 886.272c9.011 0 16.384-7.373 16.384-16.384s-7.373-16.384-16.384-16.384-16.384 7.373-16.384 16.384 7.373 16.384 16.384 16.384zM245.76 824.013v-52.429c0-0.819 0-1.638 0-1.638s0-0.819 0-1.638 0-0.819 0-1.638 0-0.819 0.819-1.638c0 0 0.819-0.819 0.819-1.638s0.819-0.819 0.819-1.638l0.819-0.819c0 0 0.819-0.819 0.819-1.638l0.819-0.819c0.819 0 0.819-0.819 1.638-1.638v0l58.163-36.045v-31.13c0-9.011 7.373-16.384 16.384-16.384s16.384 7.373 16.384 16.384v40.96c0 0.819 0 0.819 0 1.638 0 0 0 0.819 0 1.638s0 0.819 0 1.638 0 0.819-0.819 1.638c0 0.819-0.819 0.819-0.819 1.638s-0.819 0.819-0.819 1.638c0 0-0.819 0.819-0.819 1.638l-1.638 1.638-1.638 0.819-58.163 36.045v42.598c18.842 6.554 32.768 24.576 32.768 45.875 0 27.034-22.118 49.152-49.152 49.152s-49.152-22.118-49.152-49.152c0-20.48 13.926-38.502 32.768-45.056zM262.144 886.272c9.011 0 16.384-7.373 16.384-16.384s-7.373-16.384-16.384-16.384-16.384 7.373-16.384 16.384 7.373 16.384 16.384 16.384zM491.52 673.28c9.011 0 16.384 7.373 16.384 16.384v31.949l58.163 36.045c0.819 0 0.819 0.819 1.638 1.638l0.819 0.819c0 0 0.819 0.819 0.819 1.638l0.819 0.819c0 0.819 0.819 0.819 0.819 1.638 0 0 0.819 0.819 0.819 1.638s0 0.819 0.819 1.638c0 0.819 0 0.819 0.819 1.638s0 0.819 0 1.638 0 1.638 0 1.638v52.429c18.842 6.554 32.768 24.576 32.768 45.875 0 27.034-22.118 49.152-49.152 49.152s-49.152-22.118-49.152-49.152c0-21.299 13.926-39.322 32.768-45.875v-42.598l-58.163-36.045c-0.819 0-0.819-0.819-1.638-0.819l-0.819-0.819c0 0-0.819-0.819-0.819-1.638l-0.819-0.819c0 0-0.819-0.819-0.819-1.638 0 0-0.819-0.819-0.819-1.638s0-0.819-0.819-1.638c0-0.819 0-0.819-0.819-1.638s0-0.819 0-1.638 0-1.638 0-1.638v-40.96c0-10.65 7.373-18.022 16.384-18.022zM557.056 886.272c9.011 0 16.384-7.373 16.384-16.384s-7.373-16.384-16.384-16.384-16.384 7.373-16.384 16.384 7.373 16.384 16.384 16.384zM262.144 697.856v-73.728h294.912v73.728c0 9.011 7.373 16.384 16.384 16.384s16.384-7.373 16.384-16.384v-90.112c0-9.011-7.373-16.384-16.384-16.384h-327.68c-9.011 0-16.384 7.373-16.384 16.384v90.112c0 9.011 7.373 16.384 16.384 16.384s16.384-7.373 16.384-16.384z" />
<glyph unicode="&#xe90d;" glyph-name="clouds" horiz-adv-x="819" d="M161.382 397.21h321.126c51.61 0 94.208 40.96 94.208 91.75s-42.598 91.75-94.208 91.75c-7.373 0-14.746-0.819-22.118-2.458-14.746 54.886-65.536 91.75-119.603 80.282-24.576 21.299-54.886 32.768-86.016 32.768-67.174 0-127.795-57.344-135.168-125.338-29.491-15.565-47.514-45.875-47.514-79.462 0-49.152 40.141-89.293 89.293-89.293zM131.072 553.677c2.458 1.638 4.915 4.096 4.915 6.554 4.096 61.44 59.802 115.507 119.603 115.507 28.672 0 55.706-11.469 77.824-31.13 1.638-1.638 4.915-2.458 7.373-1.638 49.152 12.288 95.846-23.757 106.496-75.366 0.819-2.458 1.638-4.096 4.096-5.734 1.638-0.819 4.096-1.638 6.554-0.819 9.011 3.277 17.203 4.096 25.395 4.096 42.598 0 77.824-33.587 77.824-75.366s-35.226-75.366-77.824-75.366h-321.946c-40.141 0-72.909 32.768-72.909 72.909 0 27.853 16.384 54.067 42.598 66.355zM694.682 597.094c-3.277 55.706-49.152 100.762-106.496 100.762-23.757 0-46.694-8.192-65.536-22.118-15.565 19.661-38.502 31.13-63.898 31.13-18.842 0-37.683-6.554-51.61-18.842-3.277-3.277-4.096-8.192-0.819-11.469s8.192-4.096 11.469-0.819c11.469 9.83 26.214 14.746 41.779 14.746 22.938 0 43.418-11.469 55.706-31.13 1.638-2.458 3.277-3.277 5.734-4.096 2.458 0 4.915 0.819 6.554 2.458 16.384 15.565 38.502 23.757 61.44 23.757 49.971 0 90.112-40.141 90.112-90.931v-1.638c0-2.458 0.819-4.096 2.458-5.734s3.277-2.458 5.734-2.458v0 0c31.13 0 56.525-24.576 56.525-54.886s-25.395-54.886-56.525-54.886h-72.090c-4.915 0-8.192-3.277-8.192-8.192s3.277-8.192 8.192-8.192h72.090c40.141 0 72.909 31.949 72.909 71.27 0 37.683-28.672 67.994-65.536 71.27z" />
<glyph unicode="&#xe90e;" glyph-name="login" horiz-adv-x="825" d="M740.012 548.882c0-180.259-145.473-325.732-325.732-325.732-135.985 0-256.158 85.386-303.595 211.884-9.487 22.137-31.624 34.787-56.924 34.787h-41.112l3.162-12.65c18.975-88.548 69.574-170.772 142.31-227.696s161.285-88.548 256.158-88.548c107.523 0 211.884 41.112 290.945 120.173v0c75.899 75.899 120.173 180.259 120.173 287.783 0 110.686-44.274 215.046-120.173 290.945v0c-79.061 75.899-183.422 120.173-290.945 120.173-94.873 0-183.422-31.624-256.158-88.548s-123.335-139.148-142.31-227.696l-3.162-12.65h41.112c25.3 0 47.437 12.65 56.924 34.787 47.437 126.498 167.61 211.884 303.595 211.884 180.259 0 325.732-148.635 325.732-328.894zM3.162 504.608c104.361 0 256.158 0 357.356 0-9.487-18.975-15.812-47.437-18.975-98.036l192.909 142.31-192.909 145.473c3.162-53.762 9.487-79.061 18.975-98.036-101.198 0-256.158 0-357.356 0-3.162-34.787-3.162-56.924 0-91.711z" />
<glyph unicode="&#xe90f;" glyph-name="network-storage" horiz-adv-x="819" d="M40.96 744.029h733.556c17.377 0 31.030 13.653 31.030 31.030v137.775c0 17.377-13.653 31.030-31.030 31.030h-733.556c-17.377 0-31.030-13.653-31.030-31.030v-139.016c0-16.136 13.653-29.789 31.030-29.789zM779.481 912.834v-139.016c0-3.724-2.482-6.206-6.206-6.206h-453.042v151.428h454.284c2.482 0 4.965-2.482 4.965-6.206zM34.754 912.834c0 3.724 2.482 6.206 6.206 6.206h254.448v-150.187h-254.448c-3.724 0-6.206 2.482-6.206 6.206v137.775zM110.468 799.884c23.583 0 43.442 19.859 43.442 43.442s-19.859 43.442-43.442 43.442c-23.583 0-43.442-18.618-43.442-43.442 0-23.583 19.859-43.442 43.442-43.442zM110.468 861.944c9.93 0 18.618-8.688 18.618-18.618s-8.688-18.618-18.618-18.618-18.618 8.688-18.618 18.618 8.688 18.618 18.618 18.618zM222.177 799.884c23.583 0 43.442 19.859 43.442 43.442s-19.859 43.442-43.442 43.442-43.442-19.859-43.442-43.442 19.859-43.442 43.442-43.442zM222.177 861.944c9.93 0 18.618-8.688 18.618-18.618s-8.688-18.618-18.618-18.618-18.618 8.688-18.618 18.618 8.688 18.618 18.618 18.618zM384.776 784.989c7.447 0 12.412 4.965 12.412 12.412v93.091c0 7.447-4.965 12.412-12.412 12.412s-12.412-4.965-12.412-12.412v-93.091c0-7.447 6.206-12.412 12.412-12.412zM467.937 784.989c7.447 0 12.412 4.965 12.412 12.412v93.091c0 7.447-4.965 12.412-12.412 12.412s-12.412-4.965-12.412-12.412v-93.091c0-7.447 4.965-12.412 12.412-12.412zM549.857 784.989c7.447 0 12.412 4.965 12.412 12.412v93.091c0 7.447-4.965 12.412-12.412 12.412s-12.412-4.965-12.412-12.412v-93.091c0-7.447 6.206-12.412 12.412-12.412zM633.018 784.989c7.447 0 12.412 4.965 12.412 12.412v93.091c0 7.447-4.965 12.412-12.412 12.412s-12.412-4.965-12.412-12.412v-93.091c0-7.447 4.965-12.412 12.412-12.412zM714.938 784.989c7.447 0 12.412 4.965 12.412 12.412v93.091c0 7.447-4.965 12.412-12.412 12.412s-12.412-4.965-12.412-12.412v-93.091c0-7.447 6.206-12.412 12.412-12.412zM294.167 473.445h-233.348c-24.824 0-45.925-21.101-45.925-45.925v-158.875c0-24.824 21.101-45.925 45.925-45.925h101.779v-40.96h-40.96c-7.447 0-12.412-4.965-12.412-12.412s4.965-12.412 12.412-12.412h106.744c7.447 0 12.412 4.965 12.412 12.412s-4.965 12.412-12.412 12.412h-40.96v40.96h107.985c24.824 0 45.925 21.101 45.925 45.925v158.875c-1.241 24.824-21.101 45.925-47.166 45.925zM60.819 448.621h233.348c11.171 0 21.101-9.93 21.101-21.101v-112.95h-275.549v112.95c0 11.171 9.93 21.101 21.101 21.101zM294.167 247.544h-233.348c-11.171 0-21.101 9.93-21.101 21.101v21.101h275.549v-21.101c0-12.412-8.688-21.101-21.101-21.101zM763.345 473.445h-234.589c-24.824 0-45.925-21.101-45.925-45.925v-158.875c0-24.824 21.101-45.925 45.925-45.925h101.779v-40.96h-40.96c-7.447 0-12.412-4.965-12.412-12.412s4.965-12.412 12.412-12.412h106.744c7.447 0 12.412 4.965 12.412 12.412s-4.965 12.412-12.412 12.412h-40.96v40.96h107.985c24.824 0 45.925 21.101 45.925 45.925v158.875c0 24.824-21.101 45.925-45.925 45.925zM528.756 448.621h233.348c11.171 0 21.101-9.93 21.101-21.101v-112.95h-274.308v112.95c0 11.171 8.688 21.101 19.859 21.101zM763.345 247.544h-234.589c-11.171 0-21.101 9.93-21.101 21.101v21.101h275.549v-21.101c1.241-12.412-8.688-21.101-19.859-21.101zM601.988 521.852c0-7.447 4.965-12.412 12.412-12.412s12.412 4.965 12.412 12.412v90.608c0 7.447-4.965 12.412-12.412 12.412h-194.87v78.196c0 7.447-4.965 12.412-12.412 12.412s-12.412-4.965-12.412-12.412v-78.196h-194.87c-7.447 0-12.412-4.965-12.412-12.412v-89.367c0-7.447 4.965-12.412 12.412-12.412s12.412 4.965 12.412 12.412v76.955h389.741v-78.196z" />
<glyph unicode="&#xe910;" glyph-name="networking" horiz-adv-x="819" d="M658.773 550.4c-6.827 0-13.653-6.827-13.653-13.653v-146.773c-17.067-3.413-30.72-17.067-37.547-37.547h-197.973c-6.827 0-13.653-6.827-13.653-13.653s6.827-13.653 13.653-13.653h197.973c6.827-20.48 27.307-37.547 51.2-37.547 27.307 0 51.2 23.893 51.2 51.2 0 23.893-17.067 44.373-37.547 51.2v146.773c0 6.827-6.827 13.653-13.653 13.653zM682.667 342.187c0-13.653-10.24-23.893-23.893-23.893s-23.893 10.24-23.893 23.893 10.24 23.893 23.893 23.893 23.893-10.24 23.893-23.893zM174.080 710.827v-157.013c0-6.827 6.827-13.653 13.653-13.653s13.653 6.827 13.653 13.653v157.013c17.067 3.413 30.72 17.067 37.547 37.547h177.493c6.827 0 13.653 6.827 13.653 13.653s-6.827 13.653-13.653 13.653h-180.907c-3.413 20.48-23.893 37.547-47.787 37.547-27.307 0-51.2-23.893-51.2-54.613 0-23.893 13.653-40.96 37.547-47.787zM187.733 785.92c13.653 0 23.893-10.24 23.893-23.893s-10.24-27.307-23.893-27.307-23.893 10.24-23.893 23.893 10.24 27.307 23.893 27.307zM54.613 260.267h119.467v-17.067h-54.613c-6.827 0-13.653-6.827-13.653-13.653s6.827-13.653 13.653-13.653h133.12c6.827 0 13.653 6.827 13.653 13.653s-3.413 13.653-10.24 13.653h-54.613v17.067h119.467c27.307 0 51.2 23.893 51.2 51.2v157.013c0 27.307-23.893 51.2-51.2 51.2h-266.24c-27.307 0-51.2-23.893-51.2-51.2v-157.013c0-27.307 23.893-51.2 51.2-51.2zM320.853 287.573h-266.24c-13.653 0-23.893 10.24-23.893 23.893v6.827h314.027v-6.827c0-13.653-10.24-23.893-23.893-23.893zM54.613 495.787h266.24c13.653 0 23.893-10.24 23.893-23.893v-126.293h-314.027v126.293c0 13.653 10.24 23.893 23.893 23.893zM498.347 625.493h119.467v-17.067h-54.613c-6.827 0-13.653-6.827-13.653-13.653s6.827-13.653 13.653-13.653h133.12c6.827 0 13.653 6.827 13.653 13.653s-6.827 13.653-13.653 13.653h-54.613v17.067h119.467c27.307 0 51.2 23.893 51.2 51.2v157.013c0 27.307-23.893 51.2-51.2 51.2h-266.24c-27.307 0-51.2-23.893-51.2-51.2v-157.013c3.413-30.72 27.307-51.2 54.613-51.2zM764.587 652.8h-266.24c-13.653 0-23.893 10.24-23.893 23.893v3.413h314.027v-6.827c0-10.24-10.24-20.48-23.893-20.48zM498.347 857.6h266.24c13.653 0 23.893-10.24 23.893-23.893v-126.293h-314.027v126.293c0 13.653 10.24 23.893 23.893 23.893z" />
<glyph unicode="&#xe911;" glyph-name="noun_Network_1730043" horiz-adv-x="819" d="M801.178 261.222c-23.757-23.757-63.078-23.757-86.835 0-17.203 17.203-22.118 41.779-14.746 63.078l-165.478 99.123c-30.31-35.226-74.547-57.344-124.518-57.344-37.683 0-72.909 13.107-100.762 34.406l-80.282-80.282c26.214-40.141 22.118-94.208-13.107-128.614-40.141-40.141-104.858-40.141-144.998 0-39.322 39.322-39.322 104.858 0.819 144.179 35.226 35.226 89.293 39.322 128.614 13.107l80.282 80.282c-21.299 27.853-34.406 62.259-34.406 100.762 0 37.683 13.107 72.909 34.406 100.762l-156.467 156.467c-31.13-18.842-72.909-14.746-99.942 12.288-31.949 31.949-31.949 84.378 0 116.326s83.558 31.949 115.507 0c27.034-27.034 31.13-67.994 12.288-99.942l156.467-156.467c27.853 21.299 62.259 34.406 100.762 34.406 49.152 0 94.208-22.118 123.699-56.525l90.112 59.802c-15.565 31.13-10.65 69.632 14.746 95.846 31.949 31.949 83.558 31.949 115.507 0s31.949-83.558 0-115.507c-27.853-27.853-71.27-31.13-103.219-10.65l-95.027-63.078c10.65-22.118 17.203-46.694 17.203-72.909s-5.734-50.79-17.203-72.090l167.936-100.762c23.757 14.746 55.706 12.288 76.186-8.192 26.214-25.395 26.214-64.717 2.458-88.474z" />
<glyph unicode="&#xe912;" glyph-name="noun_Network_2096589" horiz-adv-x="819" d="M729.757 633.364c-39.592 0-71.986-27.895-80.084-64.787h-73.786c-5.399 0-10.798-3.599-13.497-8.098l-152.070-71.986-150.271 71.086c-2.699 5.399-8.098 8.998-14.397 8.998h-73.786c-8.098 36.893-40.492 64.787-80.084 64.787-44.991 0-80.984-36.893-80.984-80.984s36.893-80.984 80.984-80.984c39.592 0 71.986 27.895 80.084 64.787h62.088l169.167-80.084c1.8-0.9 4.499-1.8 7.199-1.8s4.499 0.9 7.199 1.8l169.167 80.084h62.988c8.098-36.893 40.492-64.787 80.084-64.787 44.991 0 80.984 36.893 80.984 80.984s-35.993 80.984-80.984 80.984zM92.682 503.789c-26.995 0-48.591 21.596-48.591 48.591s21.596 48.591 48.591 48.591 48.591-21.596 48.591-48.591-21.596-48.591-48.591-48.591zM729.757 503.789c-26.995 0-48.591 21.596-48.591 48.591s21.596 48.591 48.591 48.591 48.591-21.596 48.591-48.591-21.596-48.591-48.591-48.591zM592.084 394.91l-50.39 50.39 47.691 22.496c8.098 3.599 11.698 13.497 8.098 21.596s-13.497 11.698-21.596 8.098l-164.668-77.385-163.768 78.285c-8.098 3.599-17.996 0-21.596-8.098s0-17.996 8.098-21.596l48.591-23.395-50.39-50.39c-13.497 8.998-28.794 13.497-44.991 13.497-21.596 0-42.292-8.098-57.589-23.395s-23.395-35.993-23.395-57.589 8.098-42.292 23.395-57.589c15.297-15.297 35.993-24.295 57.589-24.295v0c21.596 0 42.292 8.098 57.589 23.395s24.295 35.993 24.295 57.589c0 16.197-4.499 31.494-13.497 44.991l58.489 58.489 81.884-38.692v-77.385c-36.893-8.098-64.787-40.492-64.787-80.084 0-44.991 36.893-80.984 80.984-80.984s80.984 36.893 80.984 80.984c0 39.592-27.895 71.986-64.787 80.084v78.285l81.884 38.692 58.489-58.489c-8.998-13.497-13.497-28.794-13.497-44.991 0-21.596 8.098-42.292 23.395-57.589v0c15.297-15.297 35.993-23.395 57.589-23.395s42.292 8.098 57.589 23.395c15.297 15.297 23.395 35.993 23.395 57.589s-8.098 42.292-23.395 57.589c-26.995 27.895-70.186 30.594-101.68 9.898zM220.457 293.23v0c-8.998-8.998-21.596-14.397-34.193-14.397v0c-12.598 0-25.195 5.399-34.193 14.397s-14.397 21.596-14.397 34.193 5.399 25.195 14.397 34.193 21.596 14.397 34.193 14.397 25.195-5.399 34.193-14.397 14.397-21.596 14.397-34.193c0-13.497-5.399-25.195-14.397-34.193zM459.81 233.842c0-26.995-21.596-48.591-48.591-48.591s-48.591 21.596-48.591 48.591 21.596 48.591 48.591 48.591 48.591-21.596 48.591-48.591zM670.369 293.23c-17.996-17.996-50.39-17.996-68.387 0v0c-8.998 8.998-14.397 21.596-14.397 34.193s5.399 25.195 14.397 34.193 21.596 14.397 34.193 14.397 24.295-4.499 34.193-14.397c8.998-8.998 14.397-21.596 14.397-34.193s-4.499-25.195-14.397-34.193zM128.675 719.747c16.197-16.197 36.893-23.395 57.589-23.395 15.297 0 31.494 4.499 44.991 13.497l51.29-51.29-49.49-23.395c-5.399-2.699-8.998-8.098-8.998-15.297s3.599-12.598 8.998-15.297l170.967-80.984c1.8-0.9 4.499-1.8 7.199-1.8s4.499 0.9 7.199 1.8l170.967 80.984c5.399 2.699 8.998 8.098 8.998 15.297s-3.599 12.598-8.998 15.297l-48.591 22.496 51.29 51.29c13.497-8.998 28.794-13.497 44.991-13.497 21.596 0 42.292 8.098 57.589 23.395v0c15.297 15.297 23.395 35.993 23.395 57.589s-8.098 42.292-23.395 57.589-35.993 23.395-57.589 24.295v0c-21.596 0-42.292-8.098-57.589-23.395s-23.395-35.993-23.395-57.589c0-16.197 4.499-31.494 13.497-44.991l-59.388-59.388c0 0 0-0.9-0.9-0.9l-80.984 38.692v79.185c36.893 8.098 64.787 40.492 64.787 80.084 0 44.991-36.893 80.984-80.984 80.984s-80.984-36.893-80.984-80.984c0-39.592 27.895-71.986 64.787-80.084v-79.185l-80.984-38.692-59.388 59.388c20.696 31.494 17.097 74.685-10.798 102.58-15.297 15.297-35.993 24.295-57.589 24.295s-42.292-8.098-57.589-24.295c-32.394-30.594-32.394-81.884-0.9-114.278v0zM601.982 811.529c8.998 8.998 21.596 14.397 34.193 14.397v0c12.598 0 25.195-5.399 34.193-14.397s14.397-21.596 14.397-34.193-5.399-25.195-14.397-34.193v0c-17.996-17.996-50.39-17.996-68.387 0-8.998 8.998-14.397 21.596-14.397 34.193 0.9 13.497 5.399 25.195 14.397 34.193zM411.22 556.879l-132.274 62.988 132.274 62.988 132.274-62.988-132.274-62.988zM363.529 870.917c0 26.995 21.596 48.591 48.591 48.591s48.591-21.596 48.591-48.591-21.596-48.591-48.591-48.591-48.591 21.596-48.591 48.591zM152.070 811.529c17.996 17.996 50.39 17.996 68.387 0 18.896-18.896 18.896-49.49 0-68.387s-49.49-18.896-68.387 0-18.896 49.49 0 68.387z" />
<glyph unicode="&#xe913;" glyph-name="noun_Server_1676434" horiz-adv-x="819" d="M635.84 904.48h-452.48c-29.28 0-52.96-23.84-52.96-52.96v-61.92c0-29.28 23.84-52.96 52.96-52.96h452.48c29.28 0 52.96 23.84 52.96 52.96v61.92c0 29.12-23.68 52.96-52.96 52.96zM654.24 789.6c0-10.080-8.32-18.4-18.4-18.4h-452.48c-10.080 0-18.4 8.32-18.4 18.4v61.92c0 10.080 8.32 18.4 18.4 18.4h452.48c10.080 0 18.4-8.32 18.4-18.4v-61.92zM635.84 728.96h-452.48c-29.28 0-52.96-23.84-52.96-52.96v-61.92c0-29.28 23.84-52.96 52.96-52.96h452.48c29.28 0 52.96 23.84 52.96 52.96v61.92c0 29.28-23.68 52.96-52.96 52.96zM654.24 614.080c0-10.080-8.32-18.4-18.4-18.4h-452.48c-10.080 0-18.4 8.32-18.4 18.4v61.92c0 10.080 8.32 18.4 18.4 18.4h452.48c10.080 0 18.4-8.32 18.4-18.4v-61.92zM635.84 553.6h-452.48c-29.28 0-52.96-23.84-52.96-52.96v-61.92c0-29.28 23.84-52.96 52.96-52.96h208.96v-72.8h-40c-22.24 0-40.32-18.080-40.32-40.32v-4h-148v-34.56h148c1.28-21.12 18.88-37.76 40.16-37.76h114.56c21.44 0 38.88 16.64 40.16 37.76h148.16v34.56h-147.84v4c0 22.24-18.080 40.32-40.32 40.32h-40v72.8h208.96c29.28 0 52.96 23.84 52.96 52.96v61.92c0 29.28-23.68 52.96-52.96 52.96zM472.64 272.64v-36c0-3.2-2.56-5.76-5.76-5.76h-114.56c-3.2 0-5.76 2.56-5.76 5.76v36c0 3.2 2.56 5.76 5.76 5.76h114.56c3.2 0 5.76-2.56 5.76-5.76zM654.24 438.72c0-10.080-8.32-18.4-18.4-18.4h-452.48c-10.080 0-18.4 8.32-18.4 18.4v61.92c0 10.080 8.32 18.4 18.4 18.4h452.48c10.080 0 18.4-8.32 18.4-18.4v-61.92zM250.4 820.48c0-8.483-6.877-15.36-15.36-15.36s-15.36 6.877-15.36 15.36c0 8.483 6.877 15.36 15.36 15.36s15.36-6.877 15.36-15.36zM250.4 645.12c0-8.483-6.877-15.36-15.36-15.36s-15.36 6.877-15.36 15.36c0 8.483 6.877 15.36 15.36 15.36s15.36-6.877 15.36-15.36zM250.4 469.76c0-8.483-6.877-15.36-15.36-15.36s-15.36 6.877-15.36 15.36c0 8.483 6.877 15.36 15.36 15.36s15.36-6.877 15.36-15.36z" />
<glyph unicode="&#xe914;" glyph-name="noun_web20hosting_2016008" horiz-adv-x="819" d="M137.775 340.635v0l1.241-94.332h-27.307c-7.447 0-12.412-4.965-12.412-12.412v-60.819c0-7.447 4.965-12.412 12.412-12.412h78.196c7.447 0 12.412 4.965 12.412 12.412v17.377h155.152c6.206-23.583 27.307-40.96 52.131-40.96s45.925 17.377 52.131 40.96h152.669v-17.377c0-7.447 4.965-12.412 12.412-12.412h80.679c7.447 0 12.412 4.965 12.412 12.412v60.819c0 7.447-4.965 12.412-12.412 12.412h-27.307v94.332h1.241c47.166 0 84.402 38.478 84.402 84.402v440.63c0 47.166-38.478 84.402-84.402 84.402h-27.307c-47.166 0-84.402-38.478-84.402-84.402v-440.63c0-47.166 38.478-84.402 84.402-84.402h1.241v-94.332h-27.307c-7.447 0-12.412-4.965-12.412-12.412v-17.377h-152.669c-4.965 19.859-19.859 34.754-39.719 39.719v84.402c47.166 0 84.402 38.478 84.402 84.402v440.63c0 47.166-38.478 84.402-84.402 84.402h-27.307c-47.166 0-84.402-38.478-84.402-84.402v-440.63c0-47.166 38.478-84.402 84.402-84.402h2.482v-84.402c-19.859-4.965-34.754-19.859-39.719-39.719h-155.152v17.377c0 7.447-4.965 12.412-12.412 12.412h-27.307v94.332h1.241c47.166 0 84.402 38.478 84.402 84.402v440.63c0 47.166-38.478 84.402-84.402 84.402h-27.307c-47.166 0-84.402-38.478-84.402-84.402v-440.63c0-47.166 38.478-84.402 84.402-84.402zM654.119 365.459c-33.513 0-59.578 27.307-59.578 59.578v440.63c0 33.513 27.307 59.578 59.578 59.578h27.307c33.513 0 59.578-27.307 59.578-59.578v-440.63c0-33.513-27.307-59.578-59.578-59.578 0 0-27.307 0-27.307 0zM640.465 221.479h54.613v-35.995h-53.372v35.995h-1.241zM395.947 365.459c-33.513 0-59.578 27.307-59.578 59.578v440.63c0 33.513 27.307 59.578 59.578 59.578h27.307c33.513 0 59.578-27.307 59.578-59.578v-440.63c0-33.513-27.307-59.578-59.578-59.578 0 0-27.307 0-27.307 0zM410.841 232.65c16.136 0 28.548-12.412 28.548-28.548s-12.412-28.548-28.548-28.548-28.548 12.412-28.548 28.548c0 14.895 12.412 28.548 28.548 28.548zM178.735 221.479v-35.995h-54.613v35.995h54.613zM78.196 865.668c0 33.513 27.307 59.578 59.578 59.578h27.307c33.513 0 59.578-27.307 59.578-59.578v-440.63c0-33.513-27.307-59.578-59.578-59.578h-27.307c-33.513 0-59.578 27.307-59.578 59.578v440.63zM146.463 641.008h9.93c22.342 0 40.96 18.618 40.96 40.96v157.634c0 22.342-18.618 40.96-40.96 40.96h-9.93c-22.342 0-40.96-18.618-40.96-40.96v-158.875c0-21.101 18.618-39.719 40.96-39.719zM130.327 839.602c0 8.688 7.447 16.136 16.136 16.136h9.93c8.688 0 16.136-7.447 16.136-16.136v-158.875c0-8.688-7.447-16.136-16.136-16.136h-9.93c-8.688 0-16.136 7.447-16.136 16.136v158.875zM151.428 411.384c24.824 0 45.925 19.859 45.925 45.925 0 24.824-19.859 45.925-45.925 45.925s-45.925-19.859-45.925-45.925c0-26.065 21.101-45.925 45.925-45.925zM151.428 477.168c11.171 0 21.101-8.688 21.101-21.101 0-11.171-9.93-21.101-21.101-21.101s-21.101 8.688-21.101 21.101c0 11.171 9.93 21.101 21.101 21.101zM404.635 641.008h9.93c22.342 0 39.719 18.618 39.719 40.96v157.634c0 22.342-18.618 40.96-39.719 40.96h-9.93c-22.342 0-40.96-18.618-40.96-40.96v-158.875c0-21.101 18.618-39.719 40.96-39.719zM388.499 839.602c0 8.688 7.447 16.136 16.136 16.136h9.93c8.688 0 16.136-7.447 16.136-16.136v-158.875c0-8.688-7.447-16.136-16.136-16.136h-9.93c-8.688 0-16.136 7.447-16.136 16.136v158.875zM455.525 456.068c0 24.824-19.859 45.925-45.925 45.925-24.824 0-45.925-19.859-45.925-45.925 0-24.824 19.859-45.925 45.925-45.925 24.824 1.241 45.925 21.101 45.925 45.925zM409.6 436.208c-11.171 0-21.101 8.688-21.101 21.101 0 11.171 8.688 21.101 21.101 21.101 11.171 0 21.101-8.688 21.101-21.101s-9.93-21.101-21.101-21.101zM662.807 641.008h9.93c22.342 0 40.96 18.618 40.96 40.96v157.634c0 22.342-18.618 40.96-40.96 40.96h-9.93c-22.342 0-40.96-18.618-40.96-40.96v-158.875c0-21.101 18.618-39.719 40.96-39.719zM646.672 839.602c0 8.688 7.447 16.136 16.136 16.136h9.93c8.688 0 16.136-7.447 16.136-16.136v-158.875c0-8.688-7.447-16.136-16.136-16.136h-9.93c-8.688 0-16.136 7.447-16.136 16.136v158.875zM713.697 456.068c0 24.824-19.859 45.925-45.925 45.925-24.824 0-45.925-19.859-45.925-45.925 0-24.824 19.859-45.925 45.925-45.925 24.824 1.241 45.925 21.101 45.925 45.925zM667.772 436.208c-11.171 0-21.101 8.688-21.101 21.101 0 11.171 9.93 21.101 21.101 21.101s21.101-8.688 21.101-21.101-9.93-21.101-21.101-21.101z" />
<glyph unicode="&#xe915;" glyph-name="pin" horiz-adv-x="727" d="M363.466 960c-200.846-0.509-363.466-163.444-363.466-364.361 0-0.045 0-0.091 0-0.136v0.007c0-117.829 59.746-264.060 177.575-434.983 57.379-82.351 115.357-154.34 177.844-222.108l-1.292 1.419c2.334-2.446 5.62-3.966 9.26-3.966 0.028 0 0.056 0 0.083 0h-0.004c3.705 0.048 7.023 1.663 9.33 4.211l0.010 0.011c60.257 67.736 118.257 141.663 171.577 219.063l4.975 7.64c117.829 172.714 177.575 317.025 177.575 428.714 0 0.038 0 0.084 0 0.129 0 200.917-162.62 363.851-363.418 364.361h-0.049zM363.466-32.144c-56.42 61.281-337.879 383.552-337.879 627.654 0 186.605 151.274 337.879 337.879 337.879s337.879-151.274 337.879-337.879v0c0-231.18-282.739-564.71-338.007-627.654zM364.49 819.27c-106.622 0-193.055-86.434-193.055-193.055s86.434-193.055 193.055-193.055c106.622 0 193.055 86.434 193.055 193.055v0c-0.146 106.563-86.492 192.91-193.041 193.055h-0.014zM364.49 458.875c-92.49 0-167.468 74.978-167.468 167.468s74.978 167.468 167.468 167.468c92.49 0 167.468-74.978 167.468-167.468 0-0.045 0-0.090 0-0.135v0.007c-0.146-92.406-75.052-167.268-167.461-167.34h-0.007z" />
<glyph unicode="&#xe916;" glyph-name="shield" horiz-adv-x="819" d="M715.981 583.987v178.586l-310.477 166.298-302.285-166.298v-182.682c0-168.755 99.942-321.126 254.771-388.301l45.875-19.661 51.61 21.299c158.106 65.536 260.506 220.365 260.506 390.758zM443.187 223.539l-38.502-16.384-32.768 13.926c-142.541 62.259-235.11 203.162-235.11 358.81v163.84l268.698 148.275 276.89-148.275v-158.925c0.819-158.106-94.208-300.646-239.206-361.267v0zM367.821 487.322l-99.942 99.942-22.938-22.938 122.061-122.88 208.077 198.246-22.938 23.757z" />
<glyph unicode="&#xe917;" glyph-name="single-point" horiz-adv-x="1078" d="M519.751 960c0.168 0.002 0.367 0.002 0.566 0.002 36.696 0 66.481-29.589 66.798-66.21v-0.030c-0.109-21.682-10.275-40.967-26.069-53.444l-0.144-0.11v-89.914h397.424c12.39 15.843 31.505 25.931 52.977 25.931 37.049 0 67.083-30.034 67.083-67.083s-30.034-67.083-67.083-67.083c-0.095 0-0.189 0-0.284 0.001h0.015c-22.079 0.229-41.542 11.225-53.415 27.98l-0.139 0.206h-228.307v-420.254c-0.158-22.141-18.142-40.028-40.305-40.028-0.199 0-0.397 0.001-0.595 0.004h-127.371v-149.104s0 0 0 0 0-1.973 0-2.819c16.004-12.33 26.215-31.502 26.215-53.058 0-0.174-0.001-0.348-0.002-0.522v0.027c-0.159-37.14-30.224-67.205-67.349-67.365h-0.015c-36.567 0.627-65.969 30.416-65.969 67.074 0 21.976 10.567 41.484 26.898 53.72l0.174 0.125s0 1.973 0 2.819 0 0 0 0v149.104h-269.177c-11.596-10.828-27.216-17.477-44.389-17.477-0.15 0-0.3 0.001-0.45 0.002h0.023c-37.14 0.159-67.205 30.224-67.365 67.349v0.015c0 0.076-0.001 0.166-0.001 0.256 0 18.204 7.439 34.671 19.442 46.527l0.007 0.007v208.577c-0.002 0.158-0.003 0.345-0.003 0.533 0 20.828 15.689 37.993 35.894 40.319l0.188 0.018h92.732c3.407 4.461 7.206 8.35 11.426 11.737l0.131 0.101v101.47h-138.394c-12.011-16.961-31.475-27.957-53.518-28.186h-0.036c-37.24 0.159-67.367 30.384-67.367 67.646 0 0.198 0.001 0.397 0.003 0.595v-0.030c0.602 36.741 30.528 66.294 67.356 66.294 21.287 0 40.268-9.874 52.613-25.291l0.103-0.133h359.091v88.786c-16.886 12.548-27.809 32.301-28.185 54.621l-0.001 0.060c0.303 36.663 30.094 66.266 66.799 66.266 0.695 0 1.387-0.011 2.076-0.032l-0.101 0.002zM519.751 931.814c-0.252 0.006-0.548 0.009-0.846 0.009-21.015 0-38.051-17.036-38.051-38.051 0-0.003 0-0.007 0-0.010v0.001c0.165-13.179 6.63-24.814 16.516-32.053l0.113-0.079 3.946-1.973c5.135-3.017 11.311-4.798 17.903-4.798 0.246 0 0.492 0.002 0.737 0.007l-0.037-0.001c0.406-0.016 0.883-0.026 1.362-0.026 6.656 0 12.893 1.788 18.259 4.91l-0.173-0.093c11.707 7.042 19.424 19.67 19.448 34.102v0.004c0 0.005 0 0.011 0 0.017 0 21.015-17.036 38.051-38.051 38.051-0.396 0-0.792-0.006-1.185-0.018l0.058 0.001zM507.349 827.244v-105.134h-373.747c0.191-1.901 0.299-4.109 0.299-6.342s-0.109-4.441-0.321-6.618l0.022 0.276c0.149-1.016 0.234-2.189 0.234-3.382s-0.085-2.366-0.25-3.514l0.015 0.131c0-1.691 0-3.382 0-4.792h153.050v-116.972h8.738c0.72 0.112 1.55 0.177 2.396 0.177s1.676-0.064 2.487-0.188l-0.091 0.011c0.89 0.156 1.914 0.244 2.96 0.244s2.070-0.089 3.066-0.26l-0.107 0.015h5.919v116.69h197.303v-169.116h-142.903c0.992-3.709 1.695-8.044 1.964-12.497l0.009-0.187c-0.282-4.642-0.985-8.977-2.078-13.154l0.105 0.471h140.93v-239.863h-273.405s0-1.973 0-2.819c-0.168-7.726-1.6-15.066-4.097-21.893l0.151 0.472h277.351v-169.116c3.45 0.966 7.488 1.667 11.64 1.962l0.199 0.011h1.973c4.008-0.401 7.648-1.097 11.167-2.082l-0.456 0.109v169.116h155.023c6.316 0.741 11.362 5.405 12.666 11.46l0.017 0.096v447.031h244.937c-0.93 3.424-1.63 7.46-1.958 11.601l-0.015 0.237c0.299 4.654 1.001 8.988 2.080 13.171l-0.107-0.487h-412.080v105.134c-3.696-0.972-8.030-1.674-12.476-1.962l-0.207-0.011c-4.578 0.334-8.812 1.034-12.906 2.082l0.504-0.109zM59.473 747.477c-17.74-3.857-30.832-19.426-30.832-38.052 0-21.421 17.317-38.798 38.715-38.896h0.009c0.221-0.005 0.481-0.007 0.743-0.007 14.231 0 26.651 7.755 33.264 19.269l0.099 0.187c0.71 1.342 1.379 2.928 1.912 4.574l0.061 0.217c1.765 4.341 2.798 9.375 2.819 14.648v0.008c-0.105 6.444-1.87 12.454-4.885 17.65l0.093-0.174c-6.541 12.325-19.293 20.576-33.972 20.576-0.047 0-0.093 0-0.14 0h0.007c-1.183 0.117-2.557 0.183-3.946 0.183s-2.763-0.067-4.119-0.197l0.173 0.013zM1002.579 747.477c-10.904-2.493-19.891-9.268-25.268-18.419l-0.1-0.184c-1.587-2.831-2.935-6.11-3.874-9.557l-0.072-0.308c-1.037-2.903-1.741-6.264-1.967-9.754l-0.006-0.111c0.14-6.068 1.58-11.767 4.052-16.873l-0.106 0.244s0-1.973 0-2.819c6.712-11.701 19.132-19.456 33.363-19.456 0.261 0 0.522 0.003 0.781 0.008l-0.039-0.001c21.482 0 38.897 17.415 38.897 38.897v0c0 0.003 0 0.006 0 0.009 0 21.015-17.036 38.051-38.051 38.051-0.297 0-0.594-0.003-0.89-0.010l0.044 0.001c-1.183 0.117-2.557 0.183-3.946 0.183s-2.763-0.067-4.119-0.197l0.173 0.013zM532.435 697.588h142.34v-434.911h-142.34v248.319c0.279 1.015 0.439 2.18 0.439 3.382s-0.16 2.368-0.46 3.475l0.021-0.093v179.827zM339.36 669.402v-101.47c4.337-3.503 8.134-7.39 11.437-11.677l0.119-0.161h128.247v112.744zM560.621 669.402v-147.413c0.418-2.203 0.658-4.738 0.658-7.328s-0.239-5.125-0.697-7.583l0.039 0.254v-216.469h84.558v378.539zM300.182 554.402c-6.442-0.292-12.417-2.032-17.69-4.899l0.215 0.107h-1.973c-5.628-3.332-10.197-7.901-13.433-13.355l-0.096-0.175c-1.546-2.82-2.892-6.096-3.864-9.527l-0.082-0.338c-1.044-2.905-1.749-6.266-1.968-9.759l-0.005-0.106c-0.127-1.183-0.199-2.556-0.199-3.946s0.072-2.763 0.214-4.115l-0.014 0.169c1.051-4.48 2.702-8.431 4.893-12.016l-0.101 0.178c6.621-11.779 19.037-19.607 33.282-19.607 13.438 0 25.249 6.966 32.019 17.483l0.091 0.151v1.973c3.478 5.538 5.645 12.214 5.917 19.375l0.002 0.073c-0.181 6.443-1.935 12.438-4.89 17.665l0.099-0.19c-4.357 7.847-11.078 13.931-19.19 17.378l-0.258 0.098-3.1 1.409h-1.973c-1.184 0.136-2.556 0.213-3.946 0.213s-2.762-0.077-4.112-0.228l0.166 0.015zM156.715 528.189c-5.796-1.626-10.085-6.58-10.706-12.621l-0.005-0.062v-192.229c4.552 1.445 9.838 2.449 15.299 2.808l0.203 0.011c0.592 0.075 1.278 0.117 1.973 0.117s1.381-0.043 2.054-0.126l-0.081 0.008c1.973 0 3.664 0 5.919 0l-1.973 162.915v13.811h65.674c-0.973 3.697-1.676 8.031-1.962 12.478l-0.011 0.206c0.295 4.651 0.998 8.986 2.079 13.167l-0.106-0.483h-78.075zM198.994 475.2l1.973-158.969c10.194-6.262 18.406-14.835 24.064-25.022l0.176-0.346h253.675v184.337h-124.864c-12.176-16.714-31.681-27.452-53.694-27.452s-41.519 10.739-53.563 27.263l-0.131 0.189zM166.862 297.627c-1.183 0.118-2.557 0.186-3.946 0.186s-2.763-0.067-4.118-0.199l0.172 0.014h-4.792c-2.586-1.182-4.807-2.499-6.869-4.020l0.105 0.074c-1.409 0-3.382 0-4.792-1.973l-2.819-1.973c-7.137-6.925-11.566-16.606-11.566-27.321 0-0.304 0.004-0.608 0.011-0.91l-0.001 0.045c-0.001-0.086-0.001-0.189-0.001-0.291 0-21.652 17.315-39.26 38.854-39.733l0.044-0.001c9.896 0.269 18.801 4.305 25.375 10.718l2.811 2.811c6.705 7.139 10.823 16.775 10.823 27.372 0 3.086-0.349 6.090-1.010 8.975l0.052-0.269v4.792c-6.143 13.884-19.798 23.397-35.675 23.397-0.142 0-0.283-0.001-0.425-0.002h0.022zM520.033 41.98c-6.442-0.292-12.417-2.032-17.69-4.899l0.215 0.107c-12.144-6.74-20.227-19.488-20.227-34.123 0-21.062 16.741-38.214 37.642-38.877l0.061-0.002c0.086-0.001 0.189-0.001 0.291-0.001 21.652 0 39.26 17.315 39.733 38.854l0.001 0.044c-0.255 14.857-8.802 27.66-21.202 34.003l-0.22 0.102c-2.484 1.214-5.394 2.277-8.425 3.034l-0.313 0.066h-1.973c-1.183 0.118-2.557 0.186-3.946 0.186s-2.763-0.067-4.118-0.199l0.172 0.014z" />
<glyph unicode="&#xe918;" glyph-name="storage" horiz-adv-x="1000" d="M109.031 204.689h39.931v-88.353h-39.931v88.353zM208.793 204.689h39.931v-88.353h-39.931v88.353zM308.555 204.689h39.931v-88.353h-39.931v88.353zM408.317 204.689h39.931v-88.353h-39.931v88.353zM518.515 182.196h273.486v-43.431h-273.486v43.431zM847.877 182.196h43.431v-43.431h-43.431v43.431zM109.031 533.015h39.931v-88.353h-39.931v88.353zM208.793 533.015h39.931v-88.353h-39.931v88.353zM308.555 533.015h39.931v-88.353h-39.931v88.353zM408.317 533.015h39.931v-88.353h-39.931v88.353zM518.515 510.521h273.486v-43.431h-273.486v43.431zM847.877 510.521h43.431v-43.431h-43.431v43.431zM65.341 690.403h39.931v-88.353h-39.931v88.353zM895.068 690.403h39.931v-88.353h-39.931v88.353zM65.341 359.809h39.931v-88.353h-39.931v88.353zM895.068 359.809h39.931v-88.353h-39.931v88.353zM184.031 860.757h39.931v-88.353h-39.931v88.353zM283.793 860.757h39.931v-88.353h-39.931v88.353zM383.554 860.757h39.931v-88.353h-39.931v88.353zM493.752 838.263h273.486v-43.431h-273.486v43.431zM823.115 838.263h43.431v-43.431h-43.431v43.431z" />
<glyph unicode="&#xe919;" glyph-name="switches" horiz-adv-x="1396" d="M60.975 913.455c-7.969 0-14.429-6.46-14.429-14.429v0-390.051c0-7.969 6.46-14.429 14.429-14.429v0h529.687c7.969 0 14.429 6.46 14.429 14.429v0 390.051c0 7.969-6.46 14.429-14.429 14.429v0zM590.662 448h-529.687c-33.622 0.132-60.843 27.352-60.975 60.962v390.064c0.132 33.622 27.352 60.843 60.962 60.975h529.7c33.622-0.132 60.843-27.352 60.975-60.962v-390.064c-0.132-33.622-27.352-60.843-60.962-60.975h-0.013zM149.411 820.364c-5.398 0-9.775-4.376-9.775-9.775v0-213.411c0-5.398 4.376-9.775 9.775-9.775v0h352.815c5.398 0 9.775 4.376 9.775 9.775v0 213.411c0 5.398-4.376 9.775-9.775 9.775v0zM502.225 541.091h-352.815c-31.105 0-56.32 25.215-56.32 56.32v0 213.178c0 31.105 25.215 56.32 56.32 56.32v0h352.815c31.105 0 56.32-25.215 56.32-56.32v0-213.411c-0.132-31.004-25.297-56.087-56.32-56.087 0 0 0 0-0.001 0v0zM209.455 448v-87.273c0-3.213 2.605-5.818 5.818-5.818v0h221.091c3.213 0 5.818 2.605 5.818 5.818v0 87.273zM436.364 308.364h-221.091c-28.92 0-52.364 23.444-52.364 52.364v0 133.818h325.818v-133.818c0-28.92-23.444-52.364-52.364-52.364v0zM805.702 913.455c-7.969 0-14.429-6.46-14.429-14.429v0-390.051c0-7.969 6.46-14.429 14.429-14.429h529.687c7.969 0 14.429 6.46 14.429 14.429v0 390.051c0 7.969-6.46 14.429-14.429 14.429v0zM1335.389 448h-529.687c-33.622 0.132-60.843 27.352-60.975 60.962v390.064c0.132 33.622 27.352 60.843 60.962 60.975h529.7c33.622-0.132 60.843-27.352 60.975-60.962v-390.064c-0.132-33.622-27.352-60.843-60.962-60.975h-0.013zM894.138 820.364c-5.398 0-9.775-4.376-9.775-9.775v0-213.411c0-5.398 4.376-9.775 9.775-9.775v0h352.815c5.297 0.13 9.542 4.455 9.542 9.772 0 0.001 0 0.002 0 0.003v0 213.411c0 0.001 0 0.002 0 0.003 0 5.316-4.245 9.642-9.53 9.772h-0.012zM1246.953 541.091h-352.815c-31.105 0-56.32 25.215-56.32 56.32v0 213.178c0 31.105 25.215 56.32 56.32 56.32v0h352.815c31.105 0 56.32-25.215 56.32-56.32v0-213.411c-0.132-31.004-25.297-56.087-56.32-56.087 0 0 0 0-0.001 0v0zM954.182 448v-87.273c0-3.213 2.605-5.818 5.818-5.818v0h221.091c3.213 0 5.818 2.605 5.818 5.818v0 87.273zM1181.091 308.364h-221.091c-28.92 0-52.364 23.444-52.364 52.364v0 133.818h325.818v-133.818c0-28.92-23.444-52.364-52.364-52.364v0zM325.818 122.182c-38.56 0-69.818-31.259-69.818-69.818s31.259-69.818 69.818-69.818c38.56 0 69.818 31.259 69.818 69.818v0c0 38.56-31.259 69.818-69.818 69.818v0zM325.818-64c-64.266 0-116.364 52.098-116.364 116.364s52.098 116.364 116.364 116.364c64.266 0 116.364-52.098 116.364-116.364v0c0-64.266-52.098-116.364-116.364-116.364v0zM1070.545 122.182c-38.56 0-69.818-31.259-69.818-69.818s31.259-69.818 69.818-69.818c38.56 0 69.818 31.259 69.818 69.818v0c0 38.56-31.259 69.818-69.818 69.818v0zM1070.545-64c-64.266 0-116.364 52.098-116.364 116.364s52.098 116.364 116.364 116.364c64.266 0 116.364-52.098 116.364-116.364v0c0-64.266-52.098-116.364-116.364-116.364v0zM232.727 29.091h-209.455c-12.853 0-23.273 10.42-23.273 23.273s10.42 23.273 23.273 23.273v0h209.455c12.853 0 23.273-10.42 23.273-23.273s-10.42-23.273-23.273-23.273v0zM977.455 29.091h-558.545c-12.853 0-23.273 10.42-23.273 23.273s10.42 23.273 23.273 23.273v0h558.545c12.853 0 23.273-10.42 23.273-23.273s-10.42-23.273-23.273-23.273v0zM1373.091 29.091h-209.455c-12.853 0-23.273 10.42-23.273 23.273s10.42 23.273 23.273 23.273v0h209.455c12.853 0 23.273-10.42 23.273-23.273s-10.42-23.273-23.273-23.273v0zM325.818 122.182c-12.853 0-23.273 10.42-23.273 23.273v0 186.182c0 12.853 10.42 23.273 23.273 23.273s23.273-10.42 23.273-23.273v0-186.182c0-12.853-10.42-23.273-23.273-23.273v0zM1070.545 122.182c-12.853 0-23.273 10.42-23.273 23.273v0 186.182c0 12.853 10.42 23.273 23.273 23.273s23.273-10.42 23.273-23.273v0-186.182c0-12.853-10.42-23.273-23.273-23.273v0z" />
</font>
</defs>
</svg>
